<svg width="300" height="200" viewBox="0 0 300 200" xmlns="http://www.w3.org/2000/svg">
  <rect width="300" height="200" fill="#f8f9fa"/>
  <rect x="20" y="20" width="260" height="160" fill="#667eea" rx="10"/>
  <rect x="80" y="50" width="140" height="100" fill="#ffffff" rx="8"/>
  <rect x="120" y="70" width="60" height="60" fill="#e0e7ff" rx="5"/>
  <circle cx="150" cy="100" r="15" fill="#667eea"/>
  <circle cx="150" cy="100" r="8" fill="#ffffff"/>
  <rect x="140" y="140" width="20" height="8" fill="#667eea" rx="2"/>
  <rect x="100" y="80" width="15" height="3" fill="#667eea" rx="1"/>
  <rect x="100" y="90" width="15" height="3" fill="#667eea" rx="1"/>
  <rect x="100" y="100" width="15" height="3" fill="#667eea" rx="1"/>
  <rect x="185" y="80" width="15" height="3" fill="#667eea" rx="1"/>
  <rect x="185" y="90" width="15" height="3" fill="#667eea" rx="1"/>
  <rect x="185" y="100" width="15" height="3" fill="#667eea" rx="1"/>
  <text x="150" y="190" text-anchor="middle" fill="#667eea" font-family="Arial, sans-serif" font-size="16" font-weight="bold">Doorbell Install</text>
</svg>