<svg width="300" height="200" viewBox="0 0 300 200" xmlns="http://www.w3.org/2000/svg">
  <rect width="300" height="200" fill="#f8f9fa"/>
  <rect x="20" y="20" width="260" height="160" fill="#667eea" rx="10"/>
  <rect x="40" y="40" width="80" height="40" fill="#ffffff" rx="5"/>
  <rect x="40" y="90" width="60" height="20" fill="#ffffff" rx="3"/>
  <rect x="40" y="120" width="40" height="20" fill="#ffffff" rx="3"/>
  <circle cx="200" cy="60" r="15" fill="#ffffff"/>
  <circle cx="200" cy="100" r="15" fill="#ffffff"/>
  <circle cx="200" cy="140" r="15" fill="#ffffff"/>
  <rect x="140" y="45" width="40" height="30" fill="#ffffff" rx="3"/>
  <rect x="140" y="85" width="40" height="30" fill="#ffffff" rx="3"/>
  <rect x="140" y="125" width="40" height="30" fill="#ffffff" rx="3"/>
  <path d="M230 50 L250 50 L250 70 L230 70 Z" fill="#ffffff"/>
  <path d="M230 90 L250 90 L250 110 L230 110 Z" fill="#ffffff"/>
  <path d="M230 130 L250 130 L250 150 L230 150 Z" fill="#ffffff"/>
  <text x="150" y="190" text-anchor="middle" fill="#667eea" font-family="Arial, sans-serif" font-size="16" font-weight="bold">Kitchen Cleaning</text>
</svg>